<mxfile host="app.diagrams.net" modified="2023-06-06T17:08:13.538Z" agent="Mozilla/5.0 (Macintosh; Intel Mac OS X 10_15_7) AppleWebKit/605.1.15 (KHTML, like Gecko) Version/16.4 Safari/605.1.15" etag="hzLu1D4_94O4wJfpXCgp" version="21.3.7" type="github">
  <diagram name="Page-1" id="U1p5k2ou6aDQazZYMd7k">
    <mxGraphModel dx="1554" dy="873" grid="1" gridSize="10" guides="1" tooltips="1" connect="1" arrows="1" fold="1" page="1" pageScale="1" pageWidth="1169" pageHeight="827" math="0" shadow="0">
      <root>
        <mxCell id="0" />
        <mxCell id="1" parent="0" />
        <mxCell id="ffJgXiFbN4WWgu69nXfc-3" value="Member of a&amp;nbsp;&lt;br&gt;Government Agency" style="shape=umlActor;verticalLabelPosition=bottom;verticalAlign=top;html=1;" parent="1" vertex="1">
          <mxGeometry x="239" y="334" width="30" height="60" as="geometry" />
        </mxCell>
        <mxCell id="ffJgXiFbN4WWgu69nXfc-4" value="Private Individual" style="shape=umlActor;verticalLabelPosition=bottom;verticalAlign=top;html=1;" parent="1" vertex="1">
          <mxGeometry x="150" y="334" width="30" height="60" as="geometry" />
        </mxCell>
        <mxCell id="ffJgXiFbN4WWgu69nXfc-5" value="Provider" style="shape=umlActor;verticalLabelPosition=bottom;verticalAlign=top;html=1;" parent="1" vertex="1">
          <mxGeometry x="313" y="334" width="30" height="60" as="geometry" />
        </mxCell>
        <mxCell id="ffJgXiFbN4WWgu69nXfc-6" value="Sign up" style="ellipse;whiteSpace=wrap;html=1;" parent="1" vertex="1">
          <mxGeometry x="500" y="33" width="50" height="30" as="geometry" />
        </mxCell>
        <mxCell id="ffJgXiFbN4WWgu69nXfc-9" value="Sign in" style="ellipse;whiteSpace=wrap;html=1;" parent="1" vertex="1">
          <mxGeometry x="500" y="70" width="50" height="30" as="geometry" />
        </mxCell>
        <mxCell id="ffJgXiFbN4WWgu69nXfc-10" value="Sign out" style="ellipse;whiteSpace=wrap;html=1;" parent="1" vertex="1">
          <mxGeometry x="529" y="113" width="50" height="30" as="geometry" />
        </mxCell>
        <mxCell id="ffJgXiFbN4WWgu69nXfc-12" value="Produce value of air quality at a precise location (coordinates) and at a given moment" style="ellipse;whiteSpace=wrap;html=1;" parent="1" vertex="1">
          <mxGeometry x="505.75" y="384" width="190" height="76" as="geometry" />
        </mxCell>
        <mxCell id="ffJgXiFbN4WWgu69nXfc-13" value="Observe impacts of Air Cleaners" style="ellipse;whiteSpace=wrap;html=1;" parent="1" vertex="1">
          <mxGeometry x="539.75" y="480" width="120" height="50" as="geometry" />
        </mxCell>
        <mxCell id="ffJgXiFbN4WWgu69nXfc-14" value="Select one sensor and Score and Rank similar sensors" style="ellipse;whiteSpace=wrap;html=1;" parent="1" vertex="1">
          <mxGeometry x="531.37" y="310" width="147.63" height="60" as="geometry" />
        </mxCell>
        <mxCell id="ffJgXiFbN4WWgu69nXfc-17" value="See personal awarded points" style="ellipse;whiteSpace=wrap;html=1;" parent="1" vertex="1">
          <mxGeometry x="539.75" y="640" width="120" height="40" as="geometry" />
        </mxCell>
        <mxCell id="ffJgXiFbN4WWgu69nXfc-22" value="Analyse data provided by private individuals&#39; sensors" style="ellipse;whiteSpace=wrap;html=1;" parent="1" vertex="1">
          <mxGeometry x="515.75" y="563" width="170" height="50" as="geometry" />
        </mxCell>
        <mxCell id="ffJgXiFbN4WWgu69nXfc-25" value="SystÃ¨me" style="text;html=1;strokeColor=none;fillColor=none;align=center;verticalAlign=middle;whiteSpace=wrap;rounded=0;fontStyle=1" parent="1" vertex="1">
          <mxGeometry x="572.87" y="3" width="60" height="30" as="geometry" />
        </mxCell>
        <mxCell id="ffJgXiFbN4WWgu69nXfc-28" value="" style="endArrow=open;html=1;rounded=0;entryX=0;entryY=0.5;entryDx=0;entryDy=0;endFill=0;" parent="1" target="ffJgXiFbN4WWgu69nXfc-6" edge="1">
          <mxGeometry width="50" height="50" relative="1" as="geometry">
            <mxPoint x="320" y="63" as="sourcePoint" />
            <mxPoint x="380" y="153" as="targetPoint" />
          </mxGeometry>
        </mxCell>
        <mxCell id="ffJgXiFbN4WWgu69nXfc-29" value="" style="endArrow=open;html=1;rounded=0;entryX=0;entryY=0.5;entryDx=0;entryDy=0;endFill=0;" parent="1" target="ffJgXiFbN4WWgu69nXfc-9" edge="1">
          <mxGeometry width="50" height="50" relative="1" as="geometry">
            <mxPoint x="320" y="80" as="sourcePoint" />
            <mxPoint x="600" y="253" as="targetPoint" />
          </mxGeometry>
        </mxCell>
        <mxCell id="ffJgXiFbN4WWgu69nXfc-30" value="" style="endArrow=open;html=1;rounded=0;endFill=0;" parent="1" edge="1">
          <mxGeometry width="50" height="50" relative="1" as="geometry">
            <mxPoint x="320" y="90" as="sourcePoint" />
            <mxPoint x="530" y="128" as="targetPoint" />
          </mxGeometry>
        </mxCell>
        <mxCell id="ffJgXiFbN4WWgu69nXfc-33" value="" style="endArrow=open;html=1;rounded=0;entryX=0;entryY=0.5;entryDx=0;entryDy=0;endFill=0;" parent="1" target="ffJgXiFbN4WWgu69nXfc-13" edge="1">
          <mxGeometry width="50" height="50" relative="1" as="geometry">
            <mxPoint x="260" y="440" as="sourcePoint" />
            <mxPoint x="539" y="412" as="targetPoint" />
            <Array as="points">
              <mxPoint x="260" y="460" />
            </Array>
          </mxGeometry>
        </mxCell>
        <mxCell id="ffJgXiFbN4WWgu69nXfc-34" value="" style="endArrow=open;html=1;rounded=0;entryX=0;entryY=0;entryDx=0;entryDy=0;endFill=0;" parent="1" target="ffJgXiFbN4WWgu69nXfc-14" edge="1">
          <mxGeometry width="50" height="50" relative="1" as="geometry">
            <mxPoint x="320" y="123" as="sourcePoint" />
            <mxPoint x="539" y="315" as="targetPoint" />
            <Array as="points">
              <mxPoint x="430" y="290" />
            </Array>
          </mxGeometry>
        </mxCell>
        <mxCell id="ffJgXiFbN4WWgu69nXfc-36" value="" style="endArrow=open;html=1;rounded=0;entryX=0;entryY=0.5;entryDx=0;entryDy=0;endFill=0;" parent="1" target="ffJgXiFbN4WWgu69nXfc-22" edge="1">
          <mxGeometry width="50" height="50" relative="1" as="geometry">
            <mxPoint x="240" y="440" as="sourcePoint" />
            <mxPoint x="580.87" y="337" as="targetPoint" />
            <Array as="points">
              <mxPoint x="240" y="470" />
            </Array>
          </mxGeometry>
        </mxCell>
        <mxCell id="ffJgXiFbN4WWgu69nXfc-40" value="" style="endArrow=open;html=1;rounded=0;endFill=0;entryX=0;entryY=0.5;entryDx=0;entryDy=0;" parent="1" target="ffJgXiFbN4WWgu69nXfc-17" edge="1">
          <mxGeometry width="50" height="50" relative="1" as="geometry">
            <mxPoint x="160" y="420" as="sourcePoint" />
            <mxPoint x="518.87" y="703" as="targetPoint" />
            <Array as="points">
              <mxPoint x="160" y="500" />
            </Array>
          </mxGeometry>
        </mxCell>
        <mxCell id="HUY4TNlOIy-zQhLS935--1" value="User" style="shape=umlActor;verticalLabelPosition=bottom;verticalAlign=top;html=1;" parent="1" vertex="1">
          <mxGeometry x="270" y="53" width="30" height="60" as="geometry" />
        </mxCell>
        <mxCell id="HUY4TNlOIy-zQhLS935--6" value="Admin" style="shape=umlActor;verticalLabelPosition=bottom;verticalAlign=top;html=1;" parent="1" vertex="1">
          <mxGeometry x="80" y="334" width="30" height="60" as="geometry" />
        </mxCell>
        <mxCell id="HUY4TNlOIy-zQhLS935--16" value="" style="endArrow=open;html=1;rounded=0;entryX=0;entryY=0.5;entryDx=0;entryDy=0;endFill=0;" parent="1" target="ffJgXiFbN4WWgu69nXfc-12" edge="1">
          <mxGeometry width="50" height="50" relative="1" as="geometry">
            <mxPoint x="320" y="143" as="sourcePoint" />
            <mxPoint x="469" y="332" as="targetPoint" />
            <Array as="points">
              <mxPoint x="420" y="313" />
            </Array>
          </mxGeometry>
        </mxCell>
        <mxCell id="HUY4TNlOIy-zQhLS935--25" value="Produce statistics (mean of air quality) in a specified circular area" style="ellipse;whiteSpace=wrap;html=1;" parent="1" vertex="1">
          <mxGeometry x="515.43" y="200" width="179.5" height="80" as="geometry" />
        </mxCell>
        <mxCell id="HUY4TNlOIy-zQhLS935--30" value="" style="endArrow=open;html=1;rounded=0;entryX=0;entryY=0.5;entryDx=0;entryDy=0;endFill=0;" parent="1" target="HUY4TNlOIy-zQhLS935--25" edge="1">
          <mxGeometry width="50" height="50" relative="1" as="geometry">
            <mxPoint x="320" y="110" as="sourcePoint" />
            <mxPoint x="507" y="148" as="targetPoint" />
            <Array as="points">
              <mxPoint x="450" y="150" />
            </Array>
          </mxGeometry>
        </mxCell>
        <mxCell id="HUY4TNlOIy-zQhLS935--35" value="" style="endArrow=block;endFill=0;endSize=12;html=1;rounded=0;" parent="1" edge="1">
          <mxGeometry width="160" relative="1" as="geometry">
            <mxPoint x="100" y="323" as="sourcePoint" />
            <mxPoint x="250" y="120" as="targetPoint" />
            <Array as="points">
              <mxPoint x="170" y="160" />
            </Array>
          </mxGeometry>
        </mxCell>
        <mxCell id="HUY4TNlOIy-zQhLS935--36" value="" style="endArrow=block;endFill=0;endSize=12;html=1;rounded=0;" parent="1" edge="1">
          <mxGeometry width="160" relative="1" as="geometry">
            <mxPoint x="170" y="320" as="sourcePoint" />
            <mxPoint x="270" y="143" as="targetPoint" />
          </mxGeometry>
        </mxCell>
        <mxCell id="HUY4TNlOIy-zQhLS935--37" value="" style="endArrow=block;endFill=0;endSize=12;html=1;rounded=0;" parent="1" edge="1">
          <mxGeometry width="160" relative="1" as="geometry">
            <mxPoint x="300" y="220" as="sourcePoint" />
            <mxPoint x="290" y="143" as="targetPoint" />
          </mxGeometry>
        </mxCell>
        <mxCell id="l1LTB99vvMqOSh6I2NLg-1" value="" style="endArrow=open;html=1;rounded=0;endFill=0;entryX=0;entryY=0.5;entryDx=0;entryDy=0;" parent="1" target="l1LTB99vvMqOSh6I2NLg-2" edge="1">
          <mxGeometry width="50" height="50" relative="1" as="geometry">
            <mxPoint x="90" y="420" as="sourcePoint" />
            <mxPoint x="452" y="750" as="targetPoint" />
            <Array as="points">
              <mxPoint x="90" y="520" />
            </Array>
          </mxGeometry>
        </mxCell>
        <mxCell id="l1LTB99vvMqOSh6I2NLg-2" value="Manage user rights" style="ellipse;whiteSpace=wrap;html=1;" parent="1" vertex="1">
          <mxGeometry x="554.75" y="700" width="90" height="37" as="geometry" />
        </mxCell>
        <mxCell id="l1LTB99vvMqOSh6I2NLg-3" value="Get performance of algorithms" style="ellipse;whiteSpace=wrap;html=1;" parent="1" vertex="1">
          <mxGeometry x="560" y="143" width="131.25" height="37" as="geometry" />
        </mxCell>
        <mxCell id="l1LTB99vvMqOSh6I2NLg-4" value="" style="endArrow=open;html=1;rounded=0;entryX=0;entryY=0.5;entryDx=0;entryDy=0;endFill=0;" parent="1" target="l1LTB99vvMqOSh6I2NLg-3" edge="1">
          <mxGeometry width="50" height="50" relative="1" as="geometry">
            <mxPoint x="320" y="100" as="sourcePoint" />
            <mxPoint x="499" y="98" as="targetPoint" />
          </mxGeometry>
        </mxCell>
        <mxCell id="M1C-SImw6SM38ItVc79w-2" value="" style="endArrow=open;html=1;rounded=0;endFill=0;entryX=0;entryY=0;entryDx=0;entryDy=0;" parent="1" target="ffJgXiFbN4WWgu69nXfc-13" edge="1">
          <mxGeometry width="50" height="50" relative="1" as="geometry">
            <mxPoint x="330" y="420" as="sourcePoint" />
            <mxPoint x="550" y="480" as="targetPoint" />
            <Array as="points">
              <mxPoint x="330" y="440" />
            </Array>
          </mxGeometry>
        </mxCell>
        <mxCell id="ffJgXiFbN4WWgu69nXfc-24" value="" style="rounded=0;whiteSpace=wrap;html=1;fillColor=none;strokeWidth=3;" parent="1" vertex="1">
          <mxGeometry x="378.32" y="7" width="442.87" height="752" as="geometry" />
        </mxCell>
        <mxCell id="TaEMLjiirdjJca5MRFpP-1" value="Super User" style="shape=umlActor;verticalLabelPosition=bottom;verticalAlign=top;html=1;" parent="1" vertex="1">
          <mxGeometry x="286" y="225" width="27" height="45" as="geometry" />
        </mxCell>
        <mxCell id="TaEMLjiirdjJca5MRFpP-3" value="" style="endArrow=block;html=1;rounded=0;endFill=0;" parent="1" edge="1">
          <mxGeometry width="50" height="50" relative="1" as="geometry">
            <mxPoint x="257" y="330" as="sourcePoint" />
            <mxPoint x="287" y="290" as="targetPoint" />
          </mxGeometry>
        </mxCell>
        <mxCell id="TaEMLjiirdjJca5MRFpP-4" value="" style="endArrow=block;html=1;rounded=0;endFill=0;" parent="1" edge="1">
          <mxGeometry width="50" height="50" relative="1" as="geometry">
            <mxPoint x="330" y="330" as="sourcePoint" />
            <mxPoint x="307" y="290" as="targetPoint" />
          </mxGeometry>
        </mxCell>
      </root>
    </mxGraphModel>
  </diagram>
</mxfile>
